# xmcd CD database file
#
# Track frame offsets:
#	150
#	19577
#	37585
#
# Disc length: 759 seconds
#
# Revision: 12
# Processed by: cddbd v1.5.1PL0 Copyright (c) Steve Scherf et al.
# Submitted via: CDex 1.51
#
DISCID=1102f503
DTITLE=安倍　なつみ - だって 生きてかなくちゃ (EP)
DYEAR=2004
DGENRE=Pop
TTITLE0=だって 生きてかなくちゃ
TTITLE1=恋にジェラシー申し上げます
TTITLE2=だって 生きてかなくちゃ (Instrumental）
EXTD=YEAR: 2004
EXTT0=
EXTT1=
EXTT2=
PLAYORDER=
